<svg xmlns="http://www.w3.org/2000/svg" viewBox="0 0 24 24" fill="none" stroke="#D4AF37" stroke-width="1.5" stroke-linecap="round" stroke-linejoin="round">
  <path d="m11.1 11.2 8.9-8.9c1.2-1.2 3.1-1.2 4.3 0s1.2 3.1 0 4.3L15.4 15.5" opacity="0.4"/>
  <path d="m14 12 1.5 1.5"/>
  <path d="M18.4 5.6 15 9"/>
  <path d="M4.5 16.5 2 22l5.5-2.5L16.2 10.8c.8-.8.8-2 0-2.8-.8-.8-2-.8-2.8 0z" />
  <path d="M12 11c1 1 1 2.5 1 4 0 3-1 5.5-4 6.5s-5.5-1-6.5-4 3.5-4 6.5-4c1.5 0 3 0 4 1z" fill="#D4AF37" fill-opacity="0.1" />
</svg>
